<svg width="214" height="49" viewBox="0 0 214 49" fill="none" xmlns="http://www.w3.org/2000/svg">
<rect width="214" height="49" rx="8" fill="#D9D9D9"/>
<g clip-path="url(#clip0_238_377)">
<path d="M196.958 3.71797e-05H17.0512C16.3955 3.71797e-05 15.7475 3.71798e-05 15.0935 0.00248718C14.546 0.00493718 14.0029 0.0120544 13.4501 0.0180447C12.2493 0.0277244 11.0512 0.100091 9.86645 0.234514C8.68333 0.371865 7.53727 0.630809 6.46703 1.00259C5.3981 1.37752 4.42139 1.86469 3.57233 2.44645C2.71882 3.02657 2.00735 3.69711 1.46528 4.43228C0.921711 5.166 0.544801 5.95224 0.347564 6.76385C0.148452 7.57444 0.0413078 8.39437 0.0270933 9.2163C0.0104976 9.59189 0.00874498 9.96872 0 10.3444V38.6593C0.00874498 39.0397 0.0104976 39.4082 0.0270933 39.7887C0.0413121 40.6105 0.148456 41.4304 0.347564 42.241C0.544256 43.0531 0.921188 43.8398 1.46528 44.5737C2.0071 45.3065 2.71867 45.9744 3.57233 46.5513C4.41817 47.1356 5.39551 47.6231 6.46703 47.9952C7.53726 48.3679 8.68319 48.6284 9.86645 48.7679C11.0514 48.9012 12.2493 48.9736 13.4501 48.9845C14.0029 48.9928 14.546 48.9976 15.0935 48.9976C15.7475 49 16.3955 49 17.0512 49H196.958C197.601 49 198.254 49 198.897 48.9976C199.442 48.9976 200.001 48.9928 200.546 48.9845C201.744 48.9742 202.94 48.9018 204.122 48.7679C205.309 48.6274 206.459 48.367 207.535 47.9952C208.605 47.6229 209.582 47.1354 210.427 46.5513C211.278 45.9721 211.991 45.3048 212.54 44.5737C213.08 43.8392 213.453 43.0526 213.647 42.241C213.847 41.4303 213.958 40.6106 213.979 39.7887C213.986 39.4082 213.986 39.0397 213.986 38.6593C214 38.2143 214 37.7717 214 37.3194V11.6818C214 11.2332 214 10.7882 213.986 10.3444C213.986 9.96872 213.986 9.59189 213.979 9.21625C213.958 8.39425 213.847 7.5745 213.647 6.7638C213.453 5.95266 213.079 5.16648 212.54 4.43223C211.436 2.95865 209.686 1.75917 207.535 1.00248C206.459 0.631607 205.309 0.372732 204.122 0.234404C202.94 0.0993881 201.744 0.0269967 200.546 0.0178732C200.001 0.0118952 199.442 0.00471668 198.897 0.00232793C198.254 -0.00012207 197.601 -0.00012207 196.958 -0.00012207V3.71797e-05Z" fill="#A6A6A6"/>
<path d="M15.1023 47.9282C14.5574 47.9282 14.0257 47.9234 13.4851 47.915C12.3652 47.905 11.2479 47.8383 10.1424 47.7152C9.11161 47.5936 8.11303 47.3674 7.17962 47.0441C6.25476 46.7234 5.41122 46.3029 4.68131 45.7987C3.94083 45.3005 3.32434 44.7226 2.85629 44.088C2.38307 43.4493 2.05558 42.7647 1.88522 42.0579C1.70124 41.2986 1.6017 40.5308 1.58746 39.7611C1.57612 39.5027 1.56128 38.6425 1.56128 38.6425V10.3443C1.56128 10.3443 1.57709 9.49736 1.58755 9.24853C1.60119 8.48006 1.70015 7.71342 1.88357 6.95524C2.05425 6.24661 2.382 5.55999 2.85547 4.91917C3.3218 4.28501 3.93486 3.7067 4.67088 3.20668C5.40607 2.70191 6.25231 2.27926 7.17874 1.95416C8.11001 1.63184 9.1067 1.40722 10.1354 1.28783C11.2446 1.16357 12.3657 1.09639 13.4895 1.08686L15.1031 1.0719H198.888L200.521 1.08746C201.635 1.09652 202.746 1.1631 203.845 1.28663C204.884 1.40752 205.891 1.6337 206.833 1.95775C208.689 2.61293 210.199 3.6495 211.152 4.92216C211.617 5.55856 211.94 6.23957 212.109 6.94209C212.294 7.70649 212.398 8.47915 212.42 9.25392C212.425 9.60084 212.425 9.97348 212.425 10.3443C212.439 10.8037 212.439 11.241 212.439 11.6818V37.3194C212.439 37.7644 212.439 38.1987 212.425 38.6365C212.425 39.0349 212.425 39.3998 212.418 39.7754C212.397 40.5363 212.295 41.2952 212.112 42.0459C211.945 42.7577 211.62 43.4477 211.146 44.0917C210.675 44.7194 210.062 45.2923 209.33 45.7892C208.6 46.2961 207.755 46.719 206.828 47.0417C205.888 47.3676 204.883 47.5946 203.845 47.7152C202.739 47.8389 201.622 47.9057 200.502 47.915C199.978 47.9234 199.43 47.9282 198.897 47.9282L196.958 47.9306L15.1023 47.9282Z" fill="black"/>
<path d="M44.2951 24.8683C44.3144 23.8459 44.7109 22.8434 45.4477 21.9541C46.1845 21.0648 47.2378 20.3176 48.5095 19.7821C47.7016 18.9917 46.6359 18.3413 45.3968 17.8825C44.1578 17.4237 42.7797 17.1691 41.3719 17.1389C38.3689 16.923 35.4575 18.3698 33.9272 18.3698C32.3673 18.3698 30.0112 17.1603 27.474 17.1961C25.8329 17.2324 24.2335 17.5593 22.8317 18.1449C21.4298 18.7306 20.2734 19.5549 19.4749 20.5377C16.0163 24.6396 18.5961 30.6678 21.9092 33.9834C23.5668 35.607 25.5041 37.4206 28.039 37.3562C30.5195 37.2858 31.4459 36.2727 34.4402 36.2727C37.4066 36.2727 38.2758 37.3562 40.8621 37.3153C43.5238 37.2858 45.2008 35.6846 46.8003 34.0457C47.9913 32.8888 48.9077 31.6102 49.5157 30.2573C47.9693 29.8093 46.6497 29.0594 45.7213 28.1011C44.793 27.1428 44.2969 26.0185 44.2951 24.8683Z" fill="white"/>
<path d="M39.4101 14.9584C40.8614 13.765 41.5764 12.2311 41.4032 10.6824C39.186 10.8419 37.1379 11.5678 35.667 12.7154C34.9478 13.276 34.397 13.9283 34.046 14.6348C33.6951 15.3414 33.5509 16.0884 33.6216 16.8331C34.7306 16.8409 35.8278 16.6763 36.8305 16.3515C37.8331 16.0268 38.7151 15.5505 39.4101 14.9584Z" fill="white"/>
<path d="M75.6508 33.2462H67.1859L65.153 37.3578H61.5676L69.5855 22.1458H73.3106L81.3284 37.3578H77.6819L75.6508 33.2462ZM68.0626 31.3488H74.7724L71.4647 24.6759H71.3721L68.0626 31.3488Z" fill="white"/>
<path d="M98.6443 31.813C98.6443 35.2595 95.9513 37.4739 91.8874 37.4739C90.8579 37.5107 89.8341 37.3483 88.9331 37.0051C88.0322 36.662 87.2905 36.1519 86.7931 35.5335H86.7161V41.0268H83.3927V26.267H86.6097V28.1117H86.6708C87.1911 27.4962 87.9453 26.9888 88.8531 26.6435C89.7609 26.2983 90.7884 26.128 91.8262 26.151C95.9355 26.151 98.6443 28.3761 98.6443 31.813ZM95.2283 31.813C95.2283 29.5676 93.5342 28.0914 90.9495 28.0914C88.4102 28.0914 86.7022 29.5987 86.7022 31.813C86.7022 34.0477 88.4102 35.5442 90.9495 35.5442C93.5342 35.5442 95.2283 34.0788 95.2283 31.813Z" fill="white"/>
<path d="M116.465 31.813C116.465 35.2595 113.772 37.4738 109.708 37.4738C108.678 37.5107 107.655 37.3483 106.754 37.0051C105.853 36.662 105.111 36.1519 104.613 35.5334H104.537V41.0268H101.213V26.267H104.43V28.1117H104.491C105.011 27.4962 105.766 26.9888 106.674 26.6435C107.581 26.2983 108.609 26.128 109.647 26.151C113.756 26.151 116.465 28.3761 116.465 31.813ZM113.049 31.813C113.049 29.5676 111.355 28.0913 108.77 28.0913C106.231 28.0913 104.523 29.5987 104.523 31.813C104.523 34.0477 106.231 35.5442 108.77 35.5442C111.355 35.5442 113.049 34.0788 113.049 31.813H113.049Z" fill="white"/>
<path d="M128.243 33.1193C128.489 34.6279 130.628 35.6183 133.552 35.6183C136.353 35.6183 138.368 34.6278 138.368 33.2676C138.368 32.0869 137.153 31.3799 134.275 30.8954L131.397 30.4204C127.319 29.7457 125.426 28.4394 125.426 26.3196C125.426 23.6949 128.765 21.8921 133.506 21.8921C138.199 21.8921 141.416 23.6949 141.524 26.3196H138.169C137.968 24.8015 136.136 23.8851 133.459 23.8851C130.782 23.8851 128.95 24.8122 128.95 26.1617C128.95 27.2371 130.12 27.87 132.982 28.3544L135.429 28.7659C139.986 29.504 141.879 30.7578 141.879 32.9828C141.879 35.8288 138.569 37.6113 133.306 37.6113C128.381 37.6113 125.055 35.8707 124.841 33.1192L128.243 33.1193Z" fill="white"/>
<path d="M149.051 23.6423V26.267H152.13V28.0698H149.051V34.184C149.051 35.1339 149.668 35.5765 151.021 35.5765C151.387 35.5722 151.752 35.5546 152.114 35.5238V37.3159C151.506 37.3938 150.887 37.429 150.269 37.4212C146.99 37.4212 145.712 36.5778 145.712 34.4268V28.0698H143.358V26.267H145.712V23.6423H149.051Z" fill="white"/>
<path d="M153.913 31.813C153.913 28.3234 156.914 26.1306 161.592 26.1306C166.287 26.1306 169.273 28.3234 169.273 31.813C169.273 35.3121 166.303 37.4954 161.592 37.4954C156.884 37.4954 153.913 35.3121 153.913 31.813ZM165.887 31.813C165.887 29.4192 164.285 28.0064 161.592 28.0064C158.899 28.0064 157.3 29.43 157.3 31.813C157.3 34.2163 158.899 35.6184 161.592 35.6184C164.285 35.6184 165.887 34.2163 165.887 31.813H165.887Z" fill="white"/>
<path d="M172.013 26.267H175.183V28.1548H175.26C175.474 27.5652 175.979 27.0442 176.688 26.6792C177.397 26.3143 178.268 26.1278 179.155 26.151C179.538 26.1501 179.919 26.1786 180.293 26.2359V28.3653C179.81 28.2641 179.305 28.2176 178.8 28.2277C178.317 28.2143 177.836 28.2726 177.389 28.3987C176.942 28.5247 176.54 28.7155 176.211 28.9579C175.882 29.2003 175.634 29.4886 175.483 29.8031C175.332 30.1175 175.282 30.4505 175.337 30.7794V37.3578H172.013L172.013 26.267Z" fill="white"/>
<path d="M195.616 34.1003C195.169 36.1136 192.307 37.4954 188.644 37.4954C183.934 37.4954 181.011 35.3337 181.011 31.8656C181.011 28.3868 183.95 26.1306 188.505 26.1306C192.984 26.1306 195.801 28.2385 195.801 31.6012V32.3812H184.366V32.5188C184.313 32.927 184.388 33.3382 184.585 33.7251C184.782 34.112 185.097 34.4657 185.509 34.7628C185.921 35.06 186.42 35.2936 186.974 35.4484C187.528 35.6031 188.124 35.6753 188.721 35.6602C189.507 35.7107 190.295 35.5861 190.969 35.305C191.642 35.0239 192.165 34.6014 192.46 34.1003L195.616 34.1003ZM184.381 30.7902H192.476C192.506 30.4232 192.425 30.0559 192.238 29.7114C192.05 29.3669 191.761 29.0527 191.388 28.7884C191.015 28.524 190.567 28.3154 190.071 28.1755C189.574 28.0355 189.041 27.9674 188.505 27.9753C187.964 27.9731 187.427 28.0443 186.926 28.1849C186.425 28.3254 185.97 28.5325 185.587 28.7942C185.204 29.0559 184.9 29.367 184.693 29.7096C184.486 30.0522 184.38 30.4194 184.381 30.7902V30.7902Z" fill="white"/>
<path d="M67.6461 10.6954C68.3429 10.6612 69.042 10.7333 69.6932 10.9065C70.3443 11.0798 70.9313 11.3499 71.4116 11.6973C71.8919 12.0448 72.2537 12.4609 72.4708 12.9157C72.6879 13.3705 72.7549 13.8527 72.6671 14.3274C72.6671 16.6625 70.8246 18.0048 67.6461 18.0048H63.7917V10.6954H67.6461ZM65.4491 16.9711H67.461C67.9589 16.9915 68.4571 16.9356 68.9195 16.8074C69.3818 16.6793 69.7966 16.4821 70.1337 16.2303C70.4708 15.9785 70.7217 15.6783 70.8681 15.3517C71.0145 15.0251 71.0527 14.6803 70.98 14.3423C71.0474 14.0056 71.0053 13.6629 70.8567 13.3386C70.7081 13.0144 70.4566 12.7168 70.1202 12.4669C69.7839 12.2171 69.3711 12.0214 68.9113 11.8937C68.4516 11.766 67.9563 11.7095 67.461 11.7284H65.4491V16.9711Z" fill="white"/>
<path d="M74.5392 15.2443C74.4886 14.8818 74.5491 14.516 74.7169 14.1705C74.8848 13.825 75.1561 13.5073 75.5137 13.2378C75.8713 12.9683 76.3071 12.753 76.7933 12.6056C77.2794 12.4583 77.8052 12.3822 78.3368 12.3822C78.8684 12.3822 79.3942 12.4583 79.8803 12.6056C80.3665 12.753 80.8023 12.9683 81.1599 13.2378C81.5175 13.5073 81.7889 13.825 81.9567 14.1705C82.1245 14.516 82.185 14.8818 82.1344 15.2443C82.186 15.6071 82.1262 15.9734 81.9588 16.3195C81.7914 16.6656 81.5202 16.9839 81.1625 17.2539C80.8049 17.5239 80.3687 17.7396 79.8821 17.8873C79.3954 18.0349 78.8691 18.1112 78.3368 18.1112C77.8046 18.1112 77.2782 18.0349 76.7915 17.8873C76.3049 17.7396 75.8687 17.5239 75.5111 17.2539C75.1534 16.9839 74.8822 16.6656 74.7148 16.3195C74.5474 15.9734 74.4876 15.6071 74.5392 15.2443ZM80.4997 15.2443C80.4997 14.0486 79.7156 13.3494 78.3394 13.3494C76.958 13.3494 76.1809 14.0486 76.1809 15.2443C76.1809 16.4495 76.9581 17.1434 78.3394 17.1434C79.7156 17.1434 80.4998 16.4447 80.4998 15.2443H80.4997Z" fill="white"/>
<path d="M92.2305 18.0047H90.5819L88.9176 13.9421H88.7918L87.1345 18.0047H85.5016L83.2819 12.4886H84.8938L86.3364 16.6977H86.4551L88.1107 12.4886H89.6354L91.291 16.6977H91.4167L92.8523 12.4886H94.4415L92.2305 18.0047Z" fill="white"/>
<path d="M96.3085 12.4886H97.8383V13.3649H97.9571C98.1586 13.0502 98.4984 12.7863 98.9291 12.6102C99.3599 12.434 99.8601 12.3543 100.36 12.3821C100.752 12.362 101.145 12.4024 101.511 12.5005C101.877 12.5987 102.206 12.7519 102.474 12.9489C102.742 13.146 102.941 13.3817 103.058 13.6388C103.174 13.8958 103.205 14.1675 103.147 14.4338V18.0046H101.558V14.7071C101.558 13.8207 100.996 13.3799 99.8205 13.3799C99.5545 13.3714 99.2889 13.4024 99.0421 13.4708C98.7952 13.5392 98.5728 13.6433 98.3901 13.7761C98.2075 13.9089 98.0689 14.0671 97.9839 14.24C97.899 14.4129 97.8695 14.5963 97.8977 14.7777V18.0047H96.3085L96.3085 12.4886Z" fill="white"/>
<path d="M105.68 10.3353H107.269V18.0047H105.68V10.3353Z" fill="white"/>
<path d="M109.478 15.2444C109.428 14.8818 109.488 14.5161 109.656 14.1705C109.824 13.825 110.095 13.5073 110.453 13.2378C110.811 12.9683 111.246 12.753 111.733 12.6057C112.219 12.4583 112.745 12.3822 113.276 12.3822C113.808 12.3822 114.334 12.4583 114.82 12.6057C115.306 12.753 115.742 12.9683 116.1 13.2378C116.457 13.5073 116.729 13.825 116.896 14.1705C117.064 14.5161 117.125 14.8818 117.074 15.2444C117.126 15.6073 117.066 15.9735 116.899 16.3196C116.731 16.6657 116.46 16.984 116.102 17.254C115.744 17.524 115.308 17.7397 114.822 17.8874C114.335 18.035 113.809 18.1113 113.276 18.1113C112.744 18.1113 112.218 18.035 111.731 17.8874C111.244 17.7397 110.808 17.524 110.45 17.254C110.093 16.984 109.821 16.6657 109.654 16.3196C109.487 15.9735 109.427 15.6073 109.478 15.2444ZM115.439 15.2444C115.439 14.0487 114.655 13.3495 113.278 13.3495C111.897 13.3495 111.12 14.0487 111.12 15.2444C111.12 16.4496 111.897 17.1435 113.278 17.1435C114.655 17.1435 115.439 16.4448 115.439 15.2444H115.439Z" fill="white"/>
<path d="M118.747 16.4448C118.747 15.4519 119.827 14.8795 121.743 14.7981L123.924 14.712V14.2358C123.924 13.6533 123.361 13.3243 122.275 13.3243C121.388 13.3243 120.773 13.5474 120.597 13.9374H119.058C119.221 12.9899 120.522 12.3822 122.349 12.3822C124.367 12.3822 125.506 13.0707 125.506 14.2358V18.0048H123.976V17.2296H123.85C123.595 17.5076 123.237 17.7343 122.812 17.8865C122.387 18.0386 121.911 18.1108 121.432 18.0956C121.094 18.1197 120.752 18.095 120.429 18.0231C120.105 17.9512 119.808 17.8337 119.555 17.6782C119.302 17.5226 119.099 17.3325 118.96 17.1201C118.821 16.9076 118.749 16.6776 118.747 16.4448ZM123.924 15.9734V15.5123L121.957 15.5984C120.848 15.6493 120.345 15.9077 120.345 16.3939C120.345 16.8904 120.974 17.1793 121.839 17.1793C122.092 17.1969 122.348 17.1793 122.591 17.1278C122.834 17.0762 123.06 16.9917 123.254 16.8792C123.449 16.7667 123.609 16.6285 123.724 16.4729C123.839 16.3173 123.907 16.1475 123.924 15.9734Z" fill="white"/>
<path d="M127.595 15.2443C127.595 13.5013 128.903 12.3971 130.937 12.3971C131.441 12.3813 131.94 12.4638 132.377 12.6352C132.815 12.8066 133.172 13.0597 133.407 13.3649H133.526V10.3353H135.115V18.0047H133.592V17.1332H133.466C133.213 17.4364 132.843 17.6864 132.398 17.856C131.952 18.0256 131.447 18.1085 130.937 18.0956C128.889 18.0957 127.595 16.9915 127.595 15.2443ZM129.236 15.2443C129.236 16.4143 130.042 17.1183 131.388 17.1183C132.727 17.1183 133.555 16.4041 133.555 15.2491C133.555 14.0995 132.719 13.3751 131.388 13.3751C130.05 13.3751 129.236 14.0839 129.236 15.2443H129.236Z" fill="white"/>
<path d="M141.69 15.2443C141.64 14.8818 141.7 14.516 141.868 14.1705C142.036 13.825 142.307 13.5073 142.665 13.2378C143.022 12.9683 143.458 12.753 143.944 12.6056C144.43 12.4583 144.956 12.3822 145.488 12.3822C146.019 12.3822 146.545 12.4583 147.031 12.6056C147.517 12.753 147.953 12.9683 148.311 13.2378C148.668 13.5073 148.94 13.825 149.108 14.1705C149.275 14.516 149.336 14.8818 149.285 15.2443C149.337 15.6071 149.277 15.9734 149.11 16.3195C148.942 16.6656 148.671 16.9839 148.314 17.2539C147.956 17.5239 147.52 17.7396 147.033 17.8873C146.546 18.0349 146.02 18.1112 145.488 18.1112C144.956 18.1112 144.429 18.0349 143.943 17.8873C143.456 17.7396 143.02 17.5239 142.662 17.2539C142.304 16.9839 142.033 16.6656 141.866 16.3195C141.698 15.9734 141.639 15.6071 141.69 15.2443ZM147.651 15.2443C147.651 14.0486 146.867 13.3494 145.49 13.3494C144.109 13.3494 143.332 14.0486 143.332 15.2443C143.332 16.4495 144.109 17.1434 145.49 17.1434C146.867 17.1434 147.651 16.4447 147.651 15.2443Z" fill="white"/>
<path d="M151.418 12.4886H152.948V13.3649H153.066C153.268 13.0502 153.608 12.7863 154.038 12.6102C154.469 12.434 154.969 12.3543 155.469 12.3821C155.861 12.362 156.255 12.4024 156.621 12.5005C156.986 12.5987 157.315 12.7519 157.583 12.9489C157.851 13.146 158.05 13.3817 158.167 13.6388C158.284 13.8958 158.314 14.1675 158.257 14.4338V18.0046H156.667V14.7071C156.667 13.8207 156.105 13.3799 154.93 13.3799C154.664 13.3714 154.398 13.4024 154.151 13.4708C153.904 13.5392 153.682 13.6433 153.499 13.7761C153.317 13.9089 153.178 14.0671 153.093 14.24C153.008 14.4129 152.979 14.5963 153.007 14.7777V18.0047H151.418V12.4886Z" fill="white"/>
<path d="M167.237 11.1154V12.5138H168.982V13.4308H167.237V16.2672C167.237 16.845 167.584 17.098 168.376 17.098C168.578 17.0976 168.78 17.0892 168.982 17.0729V17.9797C168.696 18.0146 168.407 18.0332 168.117 18.0353C166.35 18.0353 165.646 17.6094 165.646 16.5459V13.4307H164.368V12.5138H165.646V11.1154H167.237Z" fill="white"/>
<path d="M171.152 10.3353H172.728V13.3751H172.853C173.065 13.0574 173.414 12.7921 173.853 12.6153C174.293 12.4385 174.801 12.3587 175.309 12.387C175.699 12.3724 176.088 12.417 176.45 12.5175C176.812 12.618 177.137 12.772 177.401 12.9684C177.666 13.1648 177.865 13.3988 177.982 13.6538C178.1 13.9088 178.134 14.1784 178.082 14.4434V18.0047H176.491V14.7119C176.491 13.8309 175.892 13.3847 174.769 13.3847C174.496 13.3693 174.221 13.395 173.964 13.46C173.707 13.525 173.474 13.6277 173.281 13.7609C173.088 13.8941 172.939 14.0546 172.846 14.2312C172.753 14.4078 172.717 14.5961 172.742 14.7831V18.0047H171.152L171.152 10.3353Z" fill="white"/>
<path d="M187.349 16.5153C187.133 17.0195 186.665 17.4556 186.027 17.7473C185.389 18.039 184.622 18.1678 183.859 18.1112C183.329 18.1208 182.802 18.0512 182.314 17.9072C181.827 17.7632 181.391 17.5483 181.037 17.2775C180.683 17.0066 180.42 16.6861 180.265 16.3385C180.11 15.9908 180.067 15.6242 180.139 15.264C180.069 14.9028 180.112 14.5354 180.267 14.1867C180.422 13.8379 180.684 13.516 181.036 13.2428C181.388 12.9695 181.822 12.7513 182.308 12.6028C182.793 12.4543 183.32 12.3791 183.852 12.3822C186.093 12.3822 187.445 13.4308 187.445 15.1629V15.5428H181.758V15.6038C181.733 15.8062 181.771 16.01 181.867 16.202C181.964 16.394 182.119 16.57 182.32 16.7188C182.522 16.8676 182.767 16.9859 183.04 17.066C183.312 17.1461 183.606 17.1863 183.903 17.184C184.283 17.2153 184.668 17.1684 185.009 17.0493C185.351 16.9303 185.632 16.7444 185.819 16.5153L187.349 16.5153ZM181.758 14.7377H185.826C185.846 14.5525 185.809 14.3666 185.718 14.1917C185.627 14.0169 185.483 13.8571 185.297 13.7225C185.11 13.5879 184.884 13.4816 184.634 13.4103C184.384 13.3391 184.114 13.3044 183.844 13.3087C183.569 13.3063 183.296 13.3417 183.041 13.4127C182.787 13.4837 182.555 13.5888 182.361 13.722C182.167 13.8552 182.013 14.0137 181.91 14.1881C181.806 14.3625 181.755 14.5494 181.758 14.7377H181.758Z" fill="white"/>
</g>
<defs>
<clipPath id="clip0_238_377">
<rect width="214" height="49" fill="white"/>
</clipPath>
</defs>
</svg>
