<svg width="86" height="82" viewBox="0 0 86 82" fill="none" xmlns="http://www.w3.org/2000/svg">
<path d="M6.34784 24.0965L1.41359 6.00425C1.15083 5.04079 1.31798 4.01076 1.87193 3.17984L2.51189 2.37989C2.66615 2.18707 2.83944 2.01027 3.02914 1.85219C3.68991 1.30155 4.52281 1 5.38293 1H6.2316L81.0958 8.78935C81.4657 8.82784 81.8277 8.92192 82.1695 9.06843C82.8288 9.35094 83.3915 9.81909 83.7894 10.4158L84.0538 10.8124C84.3409 11.2431 84.5518 11.7199 84.6773 12.222C84.8395 12.8706 84.8543 13.5535 84.7232 14.2091C84.5697 14.9765 84.2205 15.6992 83.7118 16.294L29.6942 79.4565C29.3161 79.8986 28.844 80.2507 28.3124 80.4869C27.5619 80.8205 26.7255 80.9089 25.9219 80.7398L24.8388 80.5117C23.7038 80.2728 22.7696 79.4703 22.3624 78.3842L21.0545 74.8965L19.9646 71.6267L19.7189 70.8077C19.452 69.9184 19.4401 68.972 19.6844 68.0761C19.8691 67.3991 20.1952 66.7689 20.6413 66.2272L23.0163 63.3433L25.4141 59.6376L26.6176 57.5315C26.977 56.9026 27.2734 56.2397 27.5024 55.5525L28.2479 53.3161L28.7577 50.8944C28.9928 49.778 29.5841 48.7682 30.4427 48.0169C30.7226 47.772 31.0277 47.5574 31.3528 47.3768L31.5634 47.2598C32.3973 46.7965 33.3115 46.4959 34.2576 46.3738L51.1048 44.2C52.4053 44.0322 53.6284 43.4882 54.6239 42.6349L55.5403 41.7185C55.6557 41.6031 55.7822 41.4994 55.918 41.4088L55.9792 41.3681C56.6305 40.9338 57.0217 40.2028 57.0217 39.42C57.0217 38.9578 56.8849 38.5059 56.6285 38.1214L56.0323 37.2271C55.8334 36.9286 55.4983 36.7493 55.1396 36.7493C54.8137 36.7493 54.5054 36.8975 54.3018 37.152L54.1879 37.2943C53.9124 37.6387 53.4952 37.8392 53.0541 37.8392H48.9563H48.4502C47.9528 37.8392 47.4919 37.5783 47.236 37.1518C47.0792 36.8905 47.0109 36.5855 47.0412 36.2823L47.6484 30.2098V29.9378C47.6484 29.2685 47.4138 28.6203 46.9853 28.1061C46.7045 27.7692 46.3501 27.5014 45.9493 27.3233L45.5318 27.1377C44.9152 26.8637 44.2481 26.7221 43.5733 26.7221H43.2198C42.8306 26.7221 42.4422 26.7571 42.0592 26.8267L41.2129 26.9806C40.5636 27.0987 39.905 27.158 39.2451 27.158H38.7462C38.2875 27.158 37.8295 27.1931 37.3762 27.2628L35.6903 27.5222C35.3834 27.5694 35.0698 27.5428 34.7752 27.4446L34.7024 27.4203C34.2033 27.254 33.8028 26.8763 33.6074 26.3879L33.5696 26.2932C33.5101 26.1445 33.4795 25.9858 33.4795 25.8257C33.4795 25.4294 33.6661 25.0563 33.9831 24.8185L34.1828 24.6687C34.2948 24.5847 34.4165 24.5144 34.5452 24.4592L35.168 24.1923C35.6396 23.9902 36.1309 23.8376 36.634 23.7369L37.0669 23.6504C37.7257 23.5186 38.3711 23.3268 38.9949 23.0772L40.237 22.5804L41.3155 22.0411C41.4681 21.9648 41.6275 21.9028 41.7915 21.856C42.5998 21.625 43.4694 21.7752 44.1534 22.2638L44.5967 22.5804L50.0463 26.7221L50.3067 26.9825C50.6982 27.374 50.9182 27.9051 50.9182 28.4588C50.9182 28.751 50.8569 29.0398 50.7382 29.3068L50.0463 30.8638L49.617 32.1517C49.4682 32.598 49.3923 33.0655 49.3923 33.536V34.1653C49.3923 34.4311 49.4542 34.6932 49.5731 34.931C49.8631 35.511 50.4559 35.8774 51.1044 35.8774H52.2545C52.8092 35.8774 53.3563 35.7482 53.8525 35.5002L55.337 34.7579C55.5874 34.6327 55.8224 34.479 56.0375 34.2998C56.6744 33.769 57.1104 33.0362 57.273 32.2232L57.4577 31.2997L57.7549 30.1108C57.8467 29.7436 58.001 29.3949 58.211 29.0799L58.5184 28.6187C58.6796 28.377 58.7656 28.0929 58.7656 27.8024C58.7656 27.3916 58.5939 26.9996 58.2921 26.721L53.098 21.9264L50.9182 19.9646L48.9665 18.1903C48.6704 17.9211 48.4115 17.6137 48.1967 17.2761C47.4395 16.0862 46.1683 15.3199 44.7625 15.2059L33.349 14.2805C31.7129 14.1479 30.0679 14.3831 28.5345 14.9688L12.303 21.1696C11.8413 21.346 11.6135 21.8663 11.7971 22.3251C11.8636 22.4914 11.9789 22.6336 12.1279 22.7329L12.813 23.1896C13.0746 23.364 13.3582 23.5027 13.6563 23.6021L14.1965 23.7821C14.4059 23.8519 14.5962 23.9696 14.7524 24.1257L14.9127 24.286C15.0768 24.4501 15.1689 24.6726 15.1689 24.9046C15.1689 25.0939 15.1075 25.278 14.994 25.4295L14.6847 25.8419C14.5719 25.9922 14.4421 26.1289 14.2977 26.2492L13.6342 26.8021C13.3507 27.0383 13.0368 27.2354 12.7009 27.3881C11.5111 27.9289 10.1353 27.8736 8.99283 27.2388L8.67198 27.0606C7.52964 26.4259 6.69168 25.3573 6.34784 24.0965Z" fill="black" stroke="#BEBEBE"/>
</svg>
